<mxfile host="app.diagrams.net" agent="Mozilla/5.0 (Windows NT 10.0; Win64; x64) AppleWebKit/537.36 (KHTML, like Gecko) Chrome/131.0.0.0 Safari/537.36" version="26.0.2">
  <diagram id="C5RBs43oDa-KdzZeNtuy" name="Page-1">
    <mxGraphModel dx="619" dy="715" grid="1" gridSize="10" guides="1" tooltips="1" connect="1" arrows="1" fold="1" page="1" pageScale="1" pageWidth="827" pageHeight="1169" math="0" shadow="0">
      <root>
        <mxCell id="WIyWlLk6GJQsqaUBKTNV-0" />
        <mxCell id="WIyWlLk6GJQsqaUBKTNV-1" parent="WIyWlLk6GJQsqaUBKTNV-0" />
        <mxCell id="-tycmHJQu5RWDO0d2eDt-76" value="" style="edgeStyle=none;curved=1;rounded=0;orthogonalLoop=1;jettySize=auto;html=1;fontSize=12;startSize=8;endSize=8;" edge="1" parent="WIyWlLk6GJQsqaUBKTNV-1" source="-tycmHJQu5RWDO0d2eDt-71" target="-tycmHJQu5RWDO0d2eDt-75">
          <mxGeometry relative="1" as="geometry" />
        </mxCell>
        <mxCell id="-tycmHJQu5RWDO0d2eDt-59" value="" style="edgeStyle=none;curved=1;rounded=0;orthogonalLoop=1;jettySize=auto;html=1;fontSize=12;startSize=8;endSize=8;" edge="1" parent="WIyWlLk6GJQsqaUBKTNV-1" source="-tycmHJQu5RWDO0d2eDt-50" target="-tycmHJQu5RWDO0d2eDt-58">
          <mxGeometry relative="1" as="geometry" />
        </mxCell>
        <mxCell id="-tycmHJQu5RWDO0d2eDt-18" value="" style="edgeStyle=none;curved=1;rounded=0;orthogonalLoop=1;jettySize=auto;html=1;fontSize=12;startSize=8;endSize=8;" edge="1" parent="WIyWlLk6GJQsqaUBKTNV-1" target="-tycmHJQu5RWDO0d2eDt-17">
          <mxGeometry relative="1" as="geometry">
            <mxPoint x="220" y="120" as="sourcePoint" />
          </mxGeometry>
        </mxCell>
        <mxCell id="-tycmHJQu5RWDO0d2eDt-20" value="" style="edgeStyle=none;curved=1;rounded=0;orthogonalLoop=1;jettySize=auto;html=1;fontSize=12;startSize=8;endSize=8;" edge="1" parent="WIyWlLk6GJQsqaUBKTNV-1" source="-tycmHJQu5RWDO0d2eDt-17" target="-tycmHJQu5RWDO0d2eDt-19">
          <mxGeometry relative="1" as="geometry" />
        </mxCell>
        <mxCell id="-tycmHJQu5RWDO0d2eDt-17" value="getNumStudents" style="shape=process;whiteSpace=wrap;html=1;backgroundOutline=1;rounded=0;glass=0;strokeWidth=1;shadow=0;" vertex="1" parent="WIyWlLk6GJQsqaUBKTNV-1">
          <mxGeometry x="160" y="160" width="120" height="60" as="geometry" />
        </mxCell>
        <mxCell id="-tycmHJQu5RWDO0d2eDt-22" value="" style="edgeStyle=none;curved=1;rounded=0;orthogonalLoop=1;jettySize=auto;html=1;fontSize=12;startSize=8;endSize=8;" edge="1" parent="WIyWlLk6GJQsqaUBKTNV-1" source="-tycmHJQu5RWDO0d2eDt-19" target="-tycmHJQu5RWDO0d2eDt-21">
          <mxGeometry relative="1" as="geometry" />
        </mxCell>
        <mxCell id="-tycmHJQu5RWDO0d2eDt-19" value="getScores" style="shape=process;whiteSpace=wrap;html=1;backgroundOutline=1;rounded=0;glass=0;strokeWidth=1;shadow=0;" vertex="1" parent="WIyWlLk6GJQsqaUBKTNV-1">
          <mxGeometry x="160" y="260" width="120" height="60" as="geometry" />
        </mxCell>
        <mxCell id="-tycmHJQu5RWDO0d2eDt-24" value="" style="edgeStyle=none;curved=1;rounded=0;orthogonalLoop=1;jettySize=auto;html=1;fontSize=12;startSize=8;endSize=8;" edge="1" parent="WIyWlLk6GJQsqaUBKTNV-1" source="-tycmHJQu5RWDO0d2eDt-21" target="-tycmHJQu5RWDO0d2eDt-23">
          <mxGeometry relative="1" as="geometry" />
        </mxCell>
        <mxCell id="-tycmHJQu5RWDO0d2eDt-21" value="getHighestScore" style="shape=process;whiteSpace=wrap;html=1;backgroundOutline=1;rounded=0;glass=0;strokeWidth=1;shadow=0;" vertex="1" parent="WIyWlLk6GJQsqaUBKTNV-1">
          <mxGeometry x="160" y="360" width="120" height="60" as="geometry" />
        </mxCell>
        <mxCell id="-tycmHJQu5RWDO0d2eDt-26" value="" style="edgeStyle=none;curved=1;rounded=0;orthogonalLoop=1;jettySize=auto;html=1;fontSize=12;startSize=8;endSize=8;" edge="1" parent="WIyWlLk6GJQsqaUBKTNV-1" source="-tycmHJQu5RWDO0d2eDt-23" target="-tycmHJQu5RWDO0d2eDt-25">
          <mxGeometry relative="1" as="geometry" />
        </mxCell>
        <mxCell id="-tycmHJQu5RWDO0d2eDt-23" value="getGrade" style="shape=process;whiteSpace=wrap;html=1;backgroundOutline=1;rounded=0;glass=0;strokeWidth=1;shadow=0;" vertex="1" parent="WIyWlLk6GJQsqaUBKTNV-1">
          <mxGeometry x="160" y="460" width="120" height="60" as="geometry" />
        </mxCell>
        <mxCell id="-tycmHJQu5RWDO0d2eDt-28" value="" style="edgeStyle=none;curved=1;rounded=0;orthogonalLoop=1;jettySize=auto;html=1;fontSize=12;startSize=8;endSize=8;" edge="1" parent="WIyWlLk6GJQsqaUBKTNV-1" source="-tycmHJQu5RWDO0d2eDt-25">
          <mxGeometry relative="1" as="geometry">
            <mxPoint x="220" y="660" as="targetPoint" />
          </mxGeometry>
        </mxCell>
        <mxCell id="-tycmHJQu5RWDO0d2eDt-25" value="output" style="shape=process;whiteSpace=wrap;html=1;backgroundOutline=1;rounded=0;glass=0;strokeWidth=1;shadow=0;" vertex="1" parent="WIyWlLk6GJQsqaUBKTNV-1">
          <mxGeometry x="160" y="560" width="120" height="60" as="geometry" />
        </mxCell>
        <mxCell id="-tycmHJQu5RWDO0d2eDt-31" value="" style="edgeStyle=none;curved=1;rounded=0;orthogonalLoop=1;jettySize=auto;html=1;fontSize=12;startSize=8;endSize=8;" edge="1" parent="WIyWlLk6GJQsqaUBKTNV-1" source="-tycmHJQu5RWDO0d2eDt-29" target="-tycmHJQu5RWDO0d2eDt-30">
          <mxGeometry relative="1" as="geometry" />
        </mxCell>
        <mxCell id="-tycmHJQu5RWDO0d2eDt-29" value="getNumStudents" style="rounded=1;whiteSpace=wrap;html=1;" vertex="1" parent="WIyWlLk6GJQsqaUBKTNV-1">
          <mxGeometry x="345" y="90" width="110" height="40" as="geometry" />
        </mxCell>
        <mxCell id="-tycmHJQu5RWDO0d2eDt-38" value="" style="edgeStyle=none;curved=1;rounded=0;orthogonalLoop=1;jettySize=auto;html=1;fontSize=12;startSize=8;endSize=8;" edge="1" parent="WIyWlLk6GJQsqaUBKTNV-1">
          <mxGeometry relative="1" as="geometry">
            <mxPoint x="399" y="210" as="sourcePoint" />
            <mxPoint x="399" y="250" as="targetPoint" />
          </mxGeometry>
        </mxCell>
        <mxCell id="-tycmHJQu5RWDO0d2eDt-30" value="read numStudents" style="shape=parallelogram;perimeter=parallelogramPerimeter;whiteSpace=wrap;html=1;fixedSize=1;rounded=0;" vertex="1" parent="WIyWlLk6GJQsqaUBKTNV-1">
          <mxGeometry x="330" y="170" width="140" height="40" as="geometry" />
        </mxCell>
        <mxCell id="-tycmHJQu5RWDO0d2eDt-39" style="edgeStyle=none;curved=1;rounded=0;orthogonalLoop=1;jettySize=auto;html=1;exitX=0.25;exitY=0;exitDx=0;exitDy=0;fontSize=12;startSize=8;endSize=8;" edge="1" parent="WIyWlLk6GJQsqaUBKTNV-1" source="-tycmHJQu5RWDO0d2eDt-29" target="-tycmHJQu5RWDO0d2eDt-29">
          <mxGeometry relative="1" as="geometry" />
        </mxCell>
        <mxCell id="-tycmHJQu5RWDO0d2eDt-40" value="" style="edgeStyle=none;curved=1;rounded=0;orthogonalLoop=1;jettySize=auto;html=1;fontSize=12;startSize=8;endSize=8;" edge="1" parent="WIyWlLk6GJQsqaUBKTNV-1" source="-tycmHJQu5RWDO0d2eDt-41">
          <mxGeometry relative="1" as="geometry">
            <mxPoint x="580" y="170" as="targetPoint" />
          </mxGeometry>
        </mxCell>
        <mxCell id="-tycmHJQu5RWDO0d2eDt-41" value="getScores" style="rounded=1;whiteSpace=wrap;html=1;" vertex="1" parent="WIyWlLk6GJQsqaUBKTNV-1">
          <mxGeometry x="525" y="90" width="110" height="40" as="geometry" />
        </mxCell>
        <mxCell id="-tycmHJQu5RWDO0d2eDt-45" style="edgeStyle=none;curved=1;rounded=0;orthogonalLoop=1;jettySize=auto;html=1;exitX=0.25;exitY=0;exitDx=0;exitDy=0;fontSize=12;startSize=8;endSize=8;" edge="1" parent="WIyWlLk6GJQsqaUBKTNV-1" source="-tycmHJQu5RWDO0d2eDt-41" target="-tycmHJQu5RWDO0d2eDt-41">
          <mxGeometry relative="1" as="geometry" />
        </mxCell>
        <mxCell id="-tycmHJQu5RWDO0d2eDt-46" value="" style="verticalLabelPosition=bottom;verticalAlign=top;html=1;shape=hexagon;perimeter=hexagonPerimeter2;arcSize=6;size=0.27;" vertex="1" parent="WIyWlLk6GJQsqaUBKTNV-1">
          <mxGeometry x="510" y="170" width="140" height="80" as="geometry" />
        </mxCell>
        <mxCell id="-tycmHJQu5RWDO0d2eDt-47" value="i" style="text;strokeColor=none;fillColor=none;html=1;align=center;verticalAlign=middle;whiteSpace=wrap;rounded=0;fontSize=12;" vertex="1" parent="WIyWlLk6GJQsqaUBKTNV-1">
          <mxGeometry x="550" y="165" width="60" height="30" as="geometry" />
        </mxCell>
        <mxCell id="-tycmHJQu5RWDO0d2eDt-48" value="0" style="text;strokeColor=none;fillColor=none;html=1;align=center;verticalAlign=middle;whiteSpace=wrap;rounded=0;fontSize=12;" vertex="1" parent="WIyWlLk6GJQsqaUBKTNV-1">
          <mxGeometry x="505" y="195" width="60" height="30" as="geometry" />
        </mxCell>
        <mxCell id="-tycmHJQu5RWDO0d2eDt-49" value="numStudents" style="text;strokeColor=none;fillColor=none;html=1;align=center;verticalAlign=middle;whiteSpace=wrap;rounded=0;fontSize=12;" vertex="1" parent="WIyWlLk6GJQsqaUBKTNV-1">
          <mxGeometry x="580" y="195" width="60" height="30" as="geometry" />
        </mxCell>
        <mxCell id="-tycmHJQu5RWDO0d2eDt-50" value="1" style="text;strokeColor=none;fillColor=none;html=1;align=center;verticalAlign=middle;whiteSpace=wrap;rounded=0;fontSize=12;" vertex="1" parent="WIyWlLk6GJQsqaUBKTNV-1">
          <mxGeometry x="560" y="225" width="40" height="20" as="geometry" />
        </mxCell>
        <mxCell id="-tycmHJQu5RWDO0d2eDt-62" value="" style="edgeStyle=none;curved=1;rounded=0;orthogonalLoop=1;jettySize=auto;html=1;fontSize=12;startSize=8;endSize=8;" edge="1" parent="WIyWlLk6GJQsqaUBKTNV-1" source="-tycmHJQu5RWDO0d2eDt-58">
          <mxGeometry relative="1" as="geometry">
            <mxPoint x="579.9999999999999" y="335" as="targetPoint" />
          </mxGeometry>
        </mxCell>
        <mxCell id="-tycmHJQu5RWDO0d2eDt-58" value="read scores[i]" style="shape=parallelogram;perimeter=parallelogramPerimeter;whiteSpace=wrap;html=1;fixedSize=1;" vertex="1" parent="WIyWlLk6GJQsqaUBKTNV-1">
          <mxGeometry x="525" y="280" width="110" height="35" as="geometry" />
        </mxCell>
        <mxCell id="-tycmHJQu5RWDO0d2eDt-64" value="" style="edgeStyle=none;curved=1;rounded=0;orthogonalLoop=1;jettySize=auto;html=1;fontSize=12;startSize=8;endSize=8;" edge="1" parent="WIyWlLk6GJQsqaUBKTNV-1" source="-tycmHJQu5RWDO0d2eDt-65">
          <mxGeometry relative="1" as="geometry">
            <mxPoint x="745" y="170" as="targetPoint" />
          </mxGeometry>
        </mxCell>
        <mxCell id="-tycmHJQu5RWDO0d2eDt-65" value="getHighestScore" style="rounded=1;whiteSpace=wrap;html=1;" vertex="1" parent="WIyWlLk6GJQsqaUBKTNV-1">
          <mxGeometry x="690" y="90" width="110" height="40" as="geometry" />
        </mxCell>
        <mxCell id="-tycmHJQu5RWDO0d2eDt-66" style="edgeStyle=none;curved=1;rounded=0;orthogonalLoop=1;jettySize=auto;html=1;exitX=0.25;exitY=0;exitDx=0;exitDy=0;fontSize=12;startSize=8;endSize=8;" edge="1" parent="WIyWlLk6GJQsqaUBKTNV-1" source="-tycmHJQu5RWDO0d2eDt-65" target="-tycmHJQu5RWDO0d2eDt-65">
          <mxGeometry relative="1" as="geometry" />
        </mxCell>
        <mxCell id="-tycmHJQu5RWDO0d2eDt-67" value="" style="verticalLabelPosition=bottom;verticalAlign=top;html=1;shape=hexagon;perimeter=hexagonPerimeter2;arcSize=6;size=0.27;" vertex="1" parent="WIyWlLk6GJQsqaUBKTNV-1">
          <mxGeometry x="675" y="170" width="140" height="80" as="geometry" />
        </mxCell>
        <mxCell id="-tycmHJQu5RWDO0d2eDt-68" value="i" style="text;strokeColor=none;fillColor=none;html=1;align=center;verticalAlign=middle;whiteSpace=wrap;rounded=0;fontSize=12;" vertex="1" parent="WIyWlLk6GJQsqaUBKTNV-1">
          <mxGeometry x="715" y="165" width="60" height="30" as="geometry" />
        </mxCell>
        <mxCell id="-tycmHJQu5RWDO0d2eDt-69" value="0" style="text;strokeColor=none;fillColor=none;html=1;align=center;verticalAlign=middle;whiteSpace=wrap;rounded=0;fontSize=12;" vertex="1" parent="WIyWlLk6GJQsqaUBKTNV-1">
          <mxGeometry x="670" y="195" width="60" height="30" as="geometry" />
        </mxCell>
        <mxCell id="-tycmHJQu5RWDO0d2eDt-70" value="scores.length" style="text;strokeColor=none;fillColor=none;html=1;align=center;verticalAlign=middle;whiteSpace=wrap;rounded=0;fontSize=12;" vertex="1" parent="WIyWlLk6GJQsqaUBKTNV-1">
          <mxGeometry x="745" y="195" width="60" height="30" as="geometry" />
        </mxCell>
        <mxCell id="-tycmHJQu5RWDO0d2eDt-71" value="1" style="text;strokeColor=none;fillColor=none;html=1;align=center;verticalAlign=middle;whiteSpace=wrap;rounded=0;fontSize=12;" vertex="1" parent="WIyWlLk6GJQsqaUBKTNV-1">
          <mxGeometry x="725" y="225" width="40" height="20" as="geometry" />
        </mxCell>
        <mxCell id="-tycmHJQu5RWDO0d2eDt-79" value="" style="edgeStyle=none;curved=1;rounded=0;orthogonalLoop=1;jettySize=auto;html=1;fontSize=12;startSize=8;endSize=8;" edge="1" parent="WIyWlLk6GJQsqaUBKTNV-1" source="-tycmHJQu5RWDO0d2eDt-75" target="-tycmHJQu5RWDO0d2eDt-78">
          <mxGeometry relative="1" as="geometry" />
        </mxCell>
        <mxCell id="-tycmHJQu5RWDO0d2eDt-75" value="scores[i]&amp;gt;highest" style="rhombus;whiteSpace=wrap;html=1;" vertex="1" parent="WIyWlLk6GJQsqaUBKTNV-1">
          <mxGeometry x="672.5" y="280" width="145" height="70" as="geometry" />
        </mxCell>
        <mxCell id="-tycmHJQu5RWDO0d2eDt-81" value="" style="edgeStyle=none;curved=1;rounded=0;orthogonalLoop=1;jettySize=auto;html=1;fontSize=12;startSize=8;endSize=8;" edge="1" parent="WIyWlLk6GJQsqaUBKTNV-1">
          <mxGeometry relative="1" as="geometry">
            <mxPoint x="747.5" y="420" as="sourcePoint" />
            <mxPoint x="747.5" y="450" as="targetPoint" />
          </mxGeometry>
        </mxCell>
        <mxCell id="-tycmHJQu5RWDO0d2eDt-78" value="highest=scores[i]" style="whiteSpace=wrap;html=1;" vertex="1" parent="WIyWlLk6GJQsqaUBKTNV-1">
          <mxGeometry x="685" y="380" width="125" height="40" as="geometry" />
        </mxCell>
        <mxCell id="-tycmHJQu5RWDO0d2eDt-82" value="start" style="rounded=1;whiteSpace=wrap;html=1;" vertex="1" parent="WIyWlLk6GJQsqaUBKTNV-1">
          <mxGeometry x="190" y="90" width="60" height="30" as="geometry" />
        </mxCell>
        <mxCell id="-tycmHJQu5RWDO0d2eDt-83" value="end" style="rounded=1;whiteSpace=wrap;html=1;" vertex="1" parent="WIyWlLk6GJQsqaUBKTNV-1">
          <mxGeometry x="190" y="660" width="60" height="30" as="geometry" />
        </mxCell>
        <mxCell id="-tycmHJQu5RWDO0d2eDt-84" value="end" style="rounded=1;whiteSpace=wrap;html=1;" vertex="1" parent="WIyWlLk6GJQsqaUBKTNV-1">
          <mxGeometry x="370" y="250" width="60" height="30" as="geometry" />
        </mxCell>
        <mxCell id="-tycmHJQu5RWDO0d2eDt-85" value="end" style="rounded=1;whiteSpace=wrap;html=1;" vertex="1" parent="WIyWlLk6GJQsqaUBKTNV-1">
          <mxGeometry x="550" y="335" width="60" height="30" as="geometry" />
        </mxCell>
        <mxCell id="-tycmHJQu5RWDO0d2eDt-86" value="end" style="rounded=1;whiteSpace=wrap;html=1;" vertex="1" parent="WIyWlLk6GJQsqaUBKTNV-1">
          <mxGeometry x="717.5" y="450" width="60" height="30" as="geometry" />
        </mxCell>
        <mxCell id="-tycmHJQu5RWDO0d2eDt-87" style="edgeStyle=none;curved=1;rounded=0;orthogonalLoop=1;jettySize=auto;html=1;exitX=0.5;exitY=0;exitDx=0;exitDy=0;fontSize=12;startSize=8;endSize=8;" edge="1" parent="WIyWlLk6GJQsqaUBKTNV-1" source="-tycmHJQu5RWDO0d2eDt-85" target="-tycmHJQu5RWDO0d2eDt-85">
          <mxGeometry relative="1" as="geometry" />
        </mxCell>
        <mxCell id="-tycmHJQu5RWDO0d2eDt-89" value="" style="edgeStyle=none;curved=1;rounded=0;orthogonalLoop=1;jettySize=auto;html=1;fontSize=12;startSize=8;endSize=8;" edge="1" parent="WIyWlLk6GJQsqaUBKTNV-1" source="-tycmHJQu5RWDO0d2eDt-90">
          <mxGeometry relative="1" as="geometry">
            <mxPoint x="207.5" y="810" as="targetPoint" />
          </mxGeometry>
        </mxCell>
        <mxCell id="-tycmHJQu5RWDO0d2eDt-90" value="getGrade" style="rounded=1;whiteSpace=wrap;html=1;" vertex="1" parent="WIyWlLk6GJQsqaUBKTNV-1">
          <mxGeometry x="152.5" y="730" width="110" height="40" as="geometry" />
        </mxCell>
        <mxCell id="-tycmHJQu5RWDO0d2eDt-91" style="edgeStyle=none;curved=1;rounded=0;orthogonalLoop=1;jettySize=auto;html=1;exitX=0.25;exitY=0;exitDx=0;exitDy=0;fontSize=12;startSize=8;endSize=8;" edge="1" parent="WIyWlLk6GJQsqaUBKTNV-1" source="-tycmHJQu5RWDO0d2eDt-90" target="-tycmHJQu5RWDO0d2eDt-90">
          <mxGeometry relative="1" as="geometry" />
        </mxCell>
        <mxCell id="-tycmHJQu5RWDO0d2eDt-97" value="" style="edgeStyle=none;curved=1;rounded=0;orthogonalLoop=1;jettySize=auto;html=1;fontSize=12;startSize=8;endSize=8;" edge="1" parent="WIyWlLk6GJQsqaUBKTNV-1" source="-tycmHJQu5RWDO0d2eDt-98" target="-tycmHJQu5RWDO0d2eDt-100">
          <mxGeometry relative="1" as="geometry" />
        </mxCell>
        <mxCell id="-tycmHJQu5RWDO0d2eDt-104" value="" style="edgeStyle=none;curved=1;rounded=0;orthogonalLoop=1;jettySize=auto;html=1;fontSize=12;startSize=8;endSize=8;" edge="1" parent="WIyWlLk6GJQsqaUBKTNV-1" source="-tycmHJQu5RWDO0d2eDt-98" target="-tycmHJQu5RWDO0d2eDt-103">
          <mxGeometry relative="1" as="geometry" />
        </mxCell>
        <mxCell id="-tycmHJQu5RWDO0d2eDt-98" value="score&amp;gt;=70" style="rhombus;whiteSpace=wrap;html=1;" vertex="1" parent="WIyWlLk6GJQsqaUBKTNV-1">
          <mxGeometry x="161.25" y="810" width="92.5" height="60" as="geometry" />
        </mxCell>
        <mxCell id="-tycmHJQu5RWDO0d2eDt-99" value="" style="edgeStyle=none;curved=1;rounded=0;orthogonalLoop=1;jettySize=auto;html=1;fontSize=12;startSize=8;endSize=8;entryX=0.5;entryY=0;entryDx=0;entryDy=0;exitX=0.398;exitY=0.951;exitDx=0;exitDy=0;exitPerimeter=0;" edge="1" parent="WIyWlLk6GJQsqaUBKTNV-1" source="-tycmHJQu5RWDO0d2eDt-100" target="-tycmHJQu5RWDO0d2eDt-101">
          <mxGeometry relative="1" as="geometry">
            <mxPoint x="217.88" y="1020" as="targetPoint" />
            <mxPoint x="208.33335820895513" y="930" as="sourcePoint" />
          </mxGeometry>
        </mxCell>
        <mxCell id="-tycmHJQu5RWDO0d2eDt-100" value="grade=&#39;A&#39;" style="whiteSpace=wrap;html=1;" vertex="1" parent="WIyWlLk6GJQsqaUBKTNV-1">
          <mxGeometry x="176.88" y="900" width="63.75" height="30" as="geometry" />
        </mxCell>
        <mxCell id="-tycmHJQu5RWDO0d2eDt-101" value="end" style="rounded=1;whiteSpace=wrap;html=1;" vertex="1" parent="WIyWlLk6GJQsqaUBKTNV-1">
          <mxGeometry x="170" y="1020" width="60" height="30" as="geometry" />
        </mxCell>
        <mxCell id="-tycmHJQu5RWDO0d2eDt-111" value="" style="edgeStyle=none;curved=1;rounded=0;orthogonalLoop=1;jettySize=auto;html=1;fontSize=12;startSize=8;endSize=8;" edge="1" parent="WIyWlLk6GJQsqaUBKTNV-1" source="-tycmHJQu5RWDO0d2eDt-103" target="-tycmHJQu5RWDO0d2eDt-108">
          <mxGeometry relative="1" as="geometry" />
        </mxCell>
        <mxCell id="-tycmHJQu5RWDO0d2eDt-103" value="score&amp;gt;=60" style="rhombus;whiteSpace=wrap;html=1;" vertex="1" parent="WIyWlLk6GJQsqaUBKTNV-1">
          <mxGeometry x="293.75" y="810" width="92.5" height="60" as="geometry" />
        </mxCell>
        <mxCell id="-tycmHJQu5RWDO0d2eDt-105" value="" style="edgeStyle=none;curved=1;rounded=0;orthogonalLoop=1;jettySize=auto;html=1;fontSize=12;startSize=8;endSize=8;" edge="1" parent="WIyWlLk6GJQsqaUBKTNV-1">
          <mxGeometry relative="1" as="geometry">
            <mxPoint x="341" y="870" as="sourcePoint" />
            <mxPoint x="341.16666666666674" y="900" as="targetPoint" />
          </mxGeometry>
        </mxCell>
        <mxCell id="-tycmHJQu5RWDO0d2eDt-134" style="edgeStyle=orthogonalEdgeStyle;rounded=0;orthogonalLoop=1;jettySize=auto;html=1;fontSize=12;startSize=8;endSize=8;" edge="1" parent="WIyWlLk6GJQsqaUBKTNV-1" source="-tycmHJQu5RWDO0d2eDt-107">
          <mxGeometry relative="1" as="geometry">
            <mxPoint x="200" y="950" as="targetPoint" />
            <Array as="points">
              <mxPoint x="339" y="950" />
            </Array>
          </mxGeometry>
        </mxCell>
        <mxCell id="-tycmHJQu5RWDO0d2eDt-107" value="grade=&#39;B&#39;" style="whiteSpace=wrap;html=1;" vertex="1" parent="WIyWlLk6GJQsqaUBKTNV-1">
          <mxGeometry x="307.5" y="900" width="63.75" height="30" as="geometry" />
        </mxCell>
        <mxCell id="-tycmHJQu5RWDO0d2eDt-115" value="" style="edgeStyle=none;curved=1;rounded=0;orthogonalLoop=1;jettySize=auto;html=1;fontSize=12;startSize=8;endSize=8;" edge="1" parent="WIyWlLk6GJQsqaUBKTNV-1" source="-tycmHJQu5RWDO0d2eDt-108" target="-tycmHJQu5RWDO0d2eDt-112">
          <mxGeometry relative="1" as="geometry" />
        </mxCell>
        <mxCell id="-tycmHJQu5RWDO0d2eDt-108" value="score&amp;gt;=50" style="rhombus;whiteSpace=wrap;html=1;" vertex="1" parent="WIyWlLk6GJQsqaUBKTNV-1">
          <mxGeometry x="403.75" y="810" width="92.5" height="60" as="geometry" />
        </mxCell>
        <mxCell id="-tycmHJQu5RWDO0d2eDt-109" value="" style="edgeStyle=none;curved=1;rounded=0;orthogonalLoop=1;jettySize=auto;html=1;fontSize=12;startSize=8;endSize=8;" edge="1" parent="WIyWlLk6GJQsqaUBKTNV-1">
          <mxGeometry relative="1" as="geometry">
            <mxPoint x="451" y="870" as="sourcePoint" />
            <mxPoint x="451.16666666666674" y="900" as="targetPoint" />
          </mxGeometry>
        </mxCell>
        <mxCell id="-tycmHJQu5RWDO0d2eDt-110" value="grade=&#39;C&#39;" style="whiteSpace=wrap;html=1;" vertex="1" parent="WIyWlLk6GJQsqaUBKTNV-1">
          <mxGeometry x="417.5" y="900" width="63.75" height="30" as="geometry" />
        </mxCell>
        <mxCell id="-tycmHJQu5RWDO0d2eDt-112" value="score&amp;gt;40" style="rhombus;whiteSpace=wrap;html=1;" vertex="1" parent="WIyWlLk6GJQsqaUBKTNV-1">
          <mxGeometry x="507.5" y="810" width="92.5" height="60" as="geometry" />
        </mxCell>
        <mxCell id="-tycmHJQu5RWDO0d2eDt-113" value="" style="edgeStyle=none;curved=1;rounded=0;orthogonalLoop=1;jettySize=auto;html=1;fontSize=12;startSize=8;endSize=8;" edge="1" parent="WIyWlLk6GJQsqaUBKTNV-1">
          <mxGeometry relative="1" as="geometry">
            <mxPoint x="554.75" y="870" as="sourcePoint" />
            <mxPoint x="554.9166666666667" y="900" as="targetPoint" />
          </mxGeometry>
        </mxCell>
        <mxCell id="-tycmHJQu5RWDO0d2eDt-114" value="grade=&#39;D&#39;" style="whiteSpace=wrap;html=1;" vertex="1" parent="WIyWlLk6GJQsqaUBKTNV-1">
          <mxGeometry x="521.25" y="900" width="63.75" height="30" as="geometry" />
        </mxCell>
        <mxCell id="-tycmHJQu5RWDO0d2eDt-117" value="" style="edgeStyle=none;curved=1;rounded=0;orthogonalLoop=1;jettySize=auto;html=1;fontSize=12;startSize=8;endSize=8;" edge="1" parent="WIyWlLk6GJQsqaUBKTNV-1">
          <mxGeometry relative="1" as="geometry">
            <mxPoint x="600" y="840" as="sourcePoint" />
            <mxPoint x="611.5" y="840" as="targetPoint" />
          </mxGeometry>
        </mxCell>
        <mxCell id="-tycmHJQu5RWDO0d2eDt-120" value="grade=&#39;F&#39;" style="whiteSpace=wrap;html=1;" vertex="1" parent="WIyWlLk6GJQsqaUBKTNV-1">
          <mxGeometry x="611.25" y="825" width="63.75" height="30" as="geometry" />
        </mxCell>
        <mxCell id="-tycmHJQu5RWDO0d2eDt-135" style="edgeStyle=orthogonalEdgeStyle;rounded=0;orthogonalLoop=1;jettySize=auto;html=1;fontSize=12;startSize=8;endSize=8;" edge="1" parent="WIyWlLk6GJQsqaUBKTNV-1">
          <mxGeometry relative="1" as="geometry">
            <mxPoint x="200" y="970" as="targetPoint" />
            <mxPoint x="455" y="930" as="sourcePoint" />
            <Array as="points">
              <mxPoint x="455" y="970" />
              <mxPoint x="316" y="970" />
            </Array>
          </mxGeometry>
        </mxCell>
        <mxCell id="-tycmHJQu5RWDO0d2eDt-136" style="edgeStyle=orthogonalEdgeStyle;rounded=0;orthogonalLoop=1;jettySize=auto;html=1;fontSize=12;startSize=8;endSize=8;" edge="1" parent="WIyWlLk6GJQsqaUBKTNV-1">
          <mxGeometry relative="1" as="geometry">
            <mxPoint x="200" y="980" as="targetPoint" />
            <mxPoint x="550" y="930" as="sourcePoint" />
            <Array as="points">
              <mxPoint x="550" y="980" />
            </Array>
          </mxGeometry>
        </mxCell>
        <mxCell id="-tycmHJQu5RWDO0d2eDt-138" style="edgeStyle=orthogonalEdgeStyle;rounded=0;orthogonalLoop=1;jettySize=auto;html=1;fontSize=12;startSize=8;endSize=8;" edge="1" parent="WIyWlLk6GJQsqaUBKTNV-1">
          <mxGeometry relative="1" as="geometry">
            <mxPoint x="200" y="995" as="targetPoint" />
            <mxPoint x="640" y="855" as="sourcePoint" />
            <Array as="points">
              <mxPoint x="455" y="995" />
              <mxPoint x="316" y="995" />
            </Array>
          </mxGeometry>
        </mxCell>
      </root>
    </mxGraphModel>
  </diagram>
</mxfile>
